<svg id="Capa_1" data-name="Capa 1" xmlns="http://www.w3.org/2000/svg" viewBox="0 0 300 300"><defs><style>.cls-1{fill:#ffdedc;}.cls-2{fill:#c8dedc;}.cls-3{fill:#fff;stroke:#fff;stroke-miterlimit:10;}</style></defs><title>guapapp_icon_flujo</title><path class="cls-1" d="M157.09,133.69q36.94,8.87,52.31,28.18t15.36,42.88q0,22.07-15.08,42t-43.92,27a240.16,240.16,0,0,1-57.3,7.07q-48.07,0-70.5-17.72T15.52,223.42q0-17,11.22-28.37t27.8-11.41Q70,183.64,80.37,194t10.37,26.2q0,15.09-9.24,24.79t-23.56,9.71q-10.94,0-21.68-8.3l-.75,1Q54.35,270,94.32,270q12.44,0,19.23-4.06t9.14-9.7q2.36-5.66,2.35-18.67V159.32q0-12.44-4.24-16.68t-17.24-4.24H83.76V128H107.7q9.81,0,13.57-4.33T125,108.62V55.08q0-16.77-6.22-23.09t-23-6.32a92.53,92.53,0,0,0-34.5,6.23v.75H63.4Q78.67,32.65,88,42t9.33,24.6q0,15.09-10.36,24.88t-26.39,9.81q-15.27,0-25.17-9.71t-9.9-25q0-24.49,23.76-37.7t67.67-13.2q46.94,0,72.76,16.69T215.53,79q0,20.55-12,34.69t-46.47,19.22Z"/><circle class="cls-2" cx="289" cy="10" r="3"/><circle class="cls-2" cx="269" cy="10" r="3"/><circle class="cls-2" cx="249" cy="10" r="3"/><circle class="cls-2" cx="289" cy="26" r="3"/><circle class="cls-2" cx="269" cy="26" r="3"/><circle class="cls-2" cx="249" cy="26" r="3"/><circle class="cls-2" cx="289" cy="42" r="3"/><circle class="cls-2" cx="269" cy="42" r="3"/><circle class="cls-2" cx="249" cy="42" r="3"/><circle class="cls-2" cx="289" cy="58" r="3"/><circle class="cls-2" cx="269" cy="58" r="3"/><circle class="cls-2" cx="249" cy="58" r="3"/><circle class="cls-2" cx="289" cy="74" r="3"/><circle class="cls-2" cx="269" cy="74" r="3"/><circle class="cls-2" cx="249" cy="74" r="3"/><path class="cls-1" d="M190.46,116.48H182V114a5.31,5.31,0,0,0-10.62,0v2.48H141.67V114a5.31,5.31,0,1,0-10.62,0v2.55a1.84,1.84,0,0,0-.47-.07h-7.05a8.86,8.86,0,0,0-8.85,8.85v39.44a14.48,14.48,0,0,0,.57,21.46h-4.79A1.76,1.76,0,0,0,108.7,188v4.58a6.73,6.73,0,0,0,6.72,6.73h77.16a6.73,6.73,0,0,0,6.72-6.73V125.33A8.85,8.85,0,0,0,190.46,116.48Z"/><path class="cls-3" d="M188.46,114.48H180V112a5.31,5.31,0,0,0-10.62,0v2.48H139.67V112a5.31,5.31,0,1,0-10.62,0v2.55a1.84,1.84,0,0,0-.47-.07h-7.05a8.86,8.86,0,0,0-8.85,8.85v30.14a1.77,1.77,0,0,0,3.54,0V132.71H180a1.77,1.77,0,0,0,0-3.54h-63.8v-5.84a5.31,5.31,0,0,1,5.31-5.31h7.05a1.84,1.84,0,0,0,.47-.06v2.27a5.31,5.31,0,1,0,10.62,0V118H169.4v2.21a5.31,5.31,0,0,0,10.62,0V118h8.44a5.32,5.32,0,0,1,5.31,5.31v67.25a3.19,3.19,0,1,1-6.38,0V186a1.77,1.77,0,0,0-1.77-1.77H165a1.77,1.77,0,1,0,0,3.54h18.81v2.81a6.63,6.63,0,0,0,.81,3.19H113.42a3.19,3.19,0,0,1-3.19-3.19v-2.81h39.61a1.77,1.77,0,1,0,0-3.54H132.16a14.51,14.51,0,1,0-18.91,0h-4.79A1.76,1.76,0,0,0,106.7,186v4.58a6.73,6.73,0,0,0,6.72,6.73h77.16a6.73,6.73,0,0,0,6.72-6.73V123.33a8.85,8.85,0,0,0-8.84-8.85Zm-52.33,5.75a1.77,1.77,0,1,1-3.54,0V112a1.77,1.77,0,1,1,3.54,0Zm40.35,0a1.77,1.77,0,1,1-3.54,0V112a1.77,1.77,0,1,1,3.54,0Zm-64.75,53a11,11,0,1,1,11,11,11,11,0,0,1-11-11Zm0,0"/><path class="cls-3" d="M189.57,129.69a1.76,1.76,0,1,0,.52,1.25,1.77,1.77,0,0,0-.52-1.25Zm0,0"/><path class="cls-3" d="M159.55,184.75a1.79,1.79,0,0,0-1.25-.52,1.77,1.77,0,0,0,0,3.54,1.77,1.77,0,0,0,1.25-3Zm0,0"/><path class="cls-3" d="M146.73,160.49a6.73,6.73,0,1,0,6.73,6.73,6.74,6.74,0,0,0-6.73-6.73Zm0,9.92a3.19,3.19,0,1,1,3.19-3.19,3.19,3.19,0,0,1-3.19,3.19Zm0,0"/><path class="cls-3" d="M163.25,160.49a6.73,6.73,0,1,0,6.73,6.73,6.73,6.73,0,0,0-6.73-6.73Zm0,9.92a3.19,3.19,0,1,1,3.19-3.19,3.18,3.18,0,0,1-3.19,3.19Zm0,0"/><path class="cls-3" d="M179.77,160.49a6.73,6.73,0,1,0,6.72,6.73,6.74,6.74,0,0,0-6.72-6.73Zm0,9.92a3.19,3.19,0,1,1,3.18-3.19,3.19,3.19,0,0,1-3.18,3.19Zm0,0"/><path class="cls-3" d="M130.22,142.09a6.73,6.73,0,1,0,6.72,6.72,6.74,6.74,0,0,0-6.72-6.72Zm0,9.91a3.19,3.19,0,1,1,3.18-3.19,3.19,3.19,0,0,1-3.18,3.19Zm0,0"/><path class="cls-3" d="M163.25,142.09a6.73,6.73,0,1,0,6.73,6.72,6.73,6.73,0,0,0-6.73-6.72Zm0,9.91a3.19,3.19,0,1,1,3.19-3.19,3.18,3.18,0,0,1-3.19,3.19Zm0,0"/><path class="cls-3" d="M179.77,142.09a6.73,6.73,0,1,0,6.72,6.72,6.74,6.74,0,0,0-6.72-6.72Zm0,9.91a3.19,3.19,0,1,1,3.18-3.19,3.19,3.19,0,0,1-3.18,3.19Zm0,0"/><path class="cls-3" d="M146.73,142.09a6.73,6.73,0,1,0,6.73,6.72,6.73,6.73,0,0,0-6.73-6.72Zm0,9.91a3.19,3.19,0,1,1,3.19-3.19,3.19,3.19,0,0,1-3.19,3.19Zm0,0"/><path class="cls-3" d="M129,168.92a1.77,1.77,0,0,0-2.5,0l-5.76,5.77-2-2a1.77,1.77,0,0,0-2.51,2.5l3.22,3.22a1.81,1.81,0,0,0,1.26.52,1.79,1.79,0,0,0,1.25-.52l7-7a1.78,1.78,0,0,0,0-2.51Zm0,0"/><path d="M186.46,112.48H178V110a5.31,5.31,0,0,0-10.62,0v2.48H137.67V110a5.31,5.31,0,1,0-10.62,0v2.55a1.84,1.84,0,0,0-.47-.07h-7a8.86,8.86,0,0,0-8.85,8.85v30.14a1.77,1.77,0,0,0,3.54,0V130.71H178a1.77,1.77,0,0,0,0-3.54h-63.8v-5.84a5.31,5.31,0,0,1,5.31-5.31h7a1.84,1.84,0,0,0,.47-.06v2.27a5.31,5.31,0,1,0,10.62,0V116H167.4v2.21a5.31,5.31,0,0,0,10.62,0V116h8.44a5.32,5.32,0,0,1,5.31,5.31v67.25a3.19,3.19,0,1,1-6.38,0V184a1.77,1.77,0,0,0-1.77-1.77H163a1.77,1.77,0,1,0,0,3.54h18.81v2.81a6.63,6.63,0,0,0,.81,3.19H111.42a3.19,3.19,0,0,1-3.19-3.19v-2.81h39.61a1.77,1.77,0,1,0,0-3.54H130.16a14.51,14.51,0,1,0-18.91,0h-4.79A1.76,1.76,0,0,0,104.7,184v4.58a6.73,6.73,0,0,0,6.72,6.73h77.16a6.73,6.73,0,0,0,6.72-6.73V121.33a8.85,8.85,0,0,0-8.84-8.85Zm-52.33,5.75a1.77,1.77,0,1,1-3.54,0V110a1.77,1.77,0,1,1,3.54,0Zm40.35,0a1.77,1.77,0,1,1-3.54,0V110a1.77,1.77,0,1,1,3.54,0Zm-64.75,53a11,11,0,1,1,11,11,11,11,0,0,1-11-11Zm0,0"/><path d="M187.57,127.69a1.76,1.76,0,1,0,.52,1.25,1.77,1.77,0,0,0-.52-1.25Zm0,0"/><path d="M157.55,182.75a1.79,1.79,0,0,0-1.25-.52,1.77,1.77,0,0,0,0,3.54,1.77,1.77,0,0,0,1.25-3Zm0,0"/><path d="M144.73,158.49a6.73,6.73,0,1,0,6.73,6.73,6.74,6.74,0,0,0-6.73-6.73Zm0,9.92a3.19,3.19,0,1,1,3.19-3.19,3.19,3.19,0,0,1-3.19,3.19Zm0,0"/><path d="M161.25,158.49a6.73,6.73,0,1,0,6.73,6.73,6.73,6.73,0,0,0-6.73-6.73Zm0,9.92a3.19,3.19,0,1,1,3.19-3.19,3.18,3.18,0,0,1-3.19,3.19Zm0,0"/><path d="M177.77,158.49a6.73,6.73,0,1,0,6.72,6.73,6.74,6.74,0,0,0-6.72-6.73Zm0,9.92a3.19,3.19,0,1,1,3.18-3.19,3.19,3.19,0,0,1-3.18,3.19Zm0,0"/><path d="M128.22,140.09a6.73,6.73,0,1,0,6.72,6.72,6.74,6.74,0,0,0-6.72-6.72Zm0,9.91a3.19,3.19,0,1,1,3.18-3.19,3.19,3.19,0,0,1-3.18,3.19Zm0,0"/><path d="M161.25,140.09a6.73,6.73,0,1,0,6.73,6.72,6.73,6.73,0,0,0-6.73-6.72Zm0,9.91a3.19,3.19,0,1,1,3.19-3.19,3.18,3.18,0,0,1-3.19,3.19Zm0,0"/><path d="M177.77,140.09a6.73,6.73,0,1,0,6.72,6.72,6.74,6.74,0,0,0-6.72-6.72Zm0,9.91a3.19,3.19,0,1,1,3.18-3.19,3.19,3.19,0,0,1-3.18,3.19Zm0,0"/><path d="M144.73,140.09a6.73,6.73,0,1,0,6.73,6.72,6.73,6.73,0,0,0-6.73-6.72Zm0,9.91a3.19,3.19,0,1,1,3.19-3.19,3.19,3.19,0,0,1-3.19,3.19Zm0,0"/><path d="M127,166.92a1.77,1.77,0,0,0-2.5,0l-5.76,5.77-2-2a1.77,1.77,0,0,0-2.51,2.5l3.22,3.22a1.81,1.81,0,0,0,1.26.52,1.79,1.79,0,0,0,1.25-.52l7-7a1.78,1.78,0,0,0,0-2.51Zm0,0"/></svg>