<svg id="Capa_1" data-name="Capa 1" xmlns="http://www.w3.org/2000/svg" viewBox="0 0 300 300"><defs><style>.cls-1{fill:#ffdedc;}.cls-2{fill:#c8dedc;}.cls-3{fill:#fff;stroke:#fff;stroke-miterlimit:10;}</style></defs><title>guapapp_icon_flujo</title><path class="cls-1" d="M238,187q-9.62,23.76-27.05,50.62T175.7,271.77Q157.88,279,144.5,279q-6.6,0-25.82-3.21-47.13-7.72-63-7.73-22.06,0-37.7,14l-7.73-4.71a101.07,101.07,0,0,1,20.83-41.76Q46.29,217.39,59.68,208q30.53-21.87,40-30a104.82,104.82,0,0,0,17.44-19.61,82,82,0,0,0,12-27.24q4-15.73,4-39.87,0-24.69-4.8-36.66a40,40,0,0,0-16.69-19.32,49.12,49.12,0,0,0-26.39-7.35q-10.94,0-23.65,5.56A68.85,68.85,0,0,0,40.64,47l.75.75a45.25,45.25,0,0,1,14.7-2.45q16.41,0,26.39,9.9t10,26.1q0,17-11,28.37T53.83,121.06q-16.39,0-28.65-11.88T12.93,81.28q0-27,27.05-46.27t70.21-19.33q54.85,0,86.72,23.19t31.85,62.4q0,27-15.64,43.92t-40.25,27.24a271.86,271.86,0,0,1-48.73,15.36Q107.37,191.56,99,194.2a51.16,51.16,0,0,0-16.12,8.67l.76.75q10-5.46,23.94-5.46,9.22,0,35.81,2.45,27.15,2.26,36.76,2.26,21.5,0,31.39-2.92t18-18Z"/><path class="cls-1" d="M195.67,179.47a13,13,0,0,0-9.91-10.18l-19.87-4.92v-.7h15.18a5.68,5.68,0,0,0,5.67-5.68V129.05a7,7,0,0,0,0-3.28V115.49a1.32,1.32,0,0,0,0-.28c0-.34,0-1.68,0-2-.77-7.67-7.31-15.13-15.13-15.13-3.06,0-3.53.78-4.58.2a37,37,0,0,0-16.41-4.06c-16-.11-29.28,13.22-29.28,29.46V158a5.68,5.68,0,0,0,5.67,5.68h15.11v.7l-19.79,4.9-.08,0-1.45.43-.12,0a12.82,12.82,0,0,0-8.34,9.71c-5.86,29.47-5.62,25.21-5.63,25.31-.71,5,1.79,9,7.81,9h79c4.76,0,7.88-2.62,7.93-7.34C201.43,204.23,201.3,208.28,195.67,179.47Z"/><circle class="cls-2" cx="289" cy="10" r="3"/><circle class="cls-2" cx="269" cy="10" r="3"/><circle class="cls-2" cx="249" cy="10" r="3"/><circle class="cls-2" cx="289" cy="26" r="3"/><circle class="cls-2" cx="269" cy="26" r="3"/><circle class="cls-2" cx="249" cy="26" r="3"/><circle class="cls-2" cx="289" cy="42" r="3"/><circle class="cls-2" cx="269" cy="42" r="3"/><circle class="cls-2" cx="249" cy="42" r="3"/><circle class="cls-2" cx="289" cy="58" r="3"/><circle class="cls-2" cx="269" cy="58" r="3"/><circle class="cls-2" cx="249" cy="58" r="3"/><circle class="cls-2" cx="289" cy="74" r="3"/><circle class="cls-2" cx="269" cy="74" r="3"/><circle class="cls-2" cx="249" cy="74" r="3"/><path class="cls-3" d="M193.67,177.47a13,13,0,0,0-9.91-10.18l-19.87-4.92v-.7h15.18a5.68,5.68,0,0,0,5.67-5.68V127.05a7,7,0,0,0,0-3.28V113.49a1.32,1.32,0,0,0,0-.28c0-.34,0-1.68,0-2-.77-7.67-7.31-15.13-15.13-15.13-3.06,0-3.53.78-4.58.2a37,37,0,0,0-16.41-4.06c-16-.11-29.28,13.22-29.28,29.46V156a5.68,5.68,0,0,0,5.67,5.68h15.11v.7l-19.79,4.9-.08,0-1.45.43-.12,0a12.82,12.82,0,0,0-8.34,9.71c-5.86,29.47-5.62,25.21-5.63,25.31-.71,5,1.79,9,7.81,9h20.84a1.93,1.93,0,1,0,0-3.85H126.1V189.74a1.93,1.93,0,1,0-3.85,0v18.18h-9.74c-2.56,0-4-.83-4.07-3.52,0-1.31-.06,3,5.67-26.18A9,9,0,0,1,120,171.4l1.34-.4,11.37-2.82c12.64,14.9,11.89,14.11,12.62,14.83,4.22,4.11,10.24,3.82,14.21-.83l11.9-14,11.32,2.8c.33.15,6,1.14,7.18,7.22,5.68,28.9,5.68,24.87,5.67,26.18,0,2.64-1.44,3.52-4.07,3.52h-9.67V189.74a1.93,1.93,0,1,0-3.85,0v18.18H142.35a1.93,1.93,0,1,0,0,3.85h49.14c4.76,0,7.88-2.62,7.93-7.34C199.43,202.23,199.3,206.28,193.67,177.47Zm-56.47-28.1a22.27,22.27,0,0,1-6.86-16c.12-4.2-.27-4.71.4-5.34a1.21,1.21,0,0,1,.91-.33,38.7,38.7,0,0,0,33.55-15.42,9.89,9.89,0,0,0,7.52,5.18,1.15,1.15,0,0,1,1,1.14v15.1C173.73,152.85,150.77,162.32,137.2,149.37ZM180.89,156a1.82,1.82,0,0,1-1.82,1.82H163.89v-1.49a25.51,25.51,0,0,0,13.69-22.65v-.35a10,10,0,0,0,3.31-1.24Zm0-29.48a4.86,4.86,0,0,1-3.31,2.85v-7.9a4.86,4.86,0,0,1,3.31,2.85ZM125,157.81a1.82,1.82,0,0,1-1.82-1.82v-34.3a25.6,25.6,0,0,1,25.28-25.61h.13a32.74,32.74,0,0,1,14.57,3.59c2.47,1.36,4,.27,6.44.27,6,0,10.72,6.13,11.3,11.63,0,.09,0,.38,0,1.46a.55.55,0,0,0,0,.18v5.53a10.07,10.07,0,0,0-3.43-1.26,5,5,0,0,0-4.24-3.87,6.32,6.32,0,0,1-5-3.82,3.3,3.3,0,0,0-5.63-.52c-3.31,4.51-12.52,14.62-28.42,14.62-1.21,0-2-.06-2.32-.07a5.1,5.1,0,0,0-5.39,5.09v4.43a26,26,0,0,0,13.62,22.87v1.6Zm31.55,21.87c-2.68,3.15-6.44,3.14-9.12,0l-4-4.75h17.2Zm7.34-8.62H140.14l-3.31-3.91,5.67-1.4a2,2,0,0,0,1.47-1.89v-6A25.53,25.53,0,0,0,160,158c0,6.16-.09,6,.1,6.56a2,2,0,0,0,1.36,1.24l5.71,1.41Z"/><path d="M191.67,175.47a13,13,0,0,0-9.91-10.18l-19.87-4.92v-.7h15.18a5.68,5.68,0,0,0,5.67-5.68V125.05a7,7,0,0,0,0-3.28V111.49a1.32,1.32,0,0,0,0-.28c0-.34,0-1.68,0-2-.77-7.67-7.31-15.13-15.13-15.13-3.06,0-3.53.78-4.58.2a37,37,0,0,0-16.41-4.06c-16-.11-29.28,13.22-29.28,29.46V154a5.68,5.68,0,0,0,5.67,5.68h15.11v.7l-19.79,4.9-.08,0-1.45.43-.12,0a12.82,12.82,0,0,0-8.34,9.71c-5.86,29.47-5.62,25.21-5.63,25.31-.71,5,1.79,9,7.81,9h20.84a1.93,1.93,0,1,0,0-3.85H124.1V187.74a1.93,1.93,0,1,0-3.85,0v18.18h-9.74c-2.56,0-4-.83-4.07-3.52,0-1.31-.06,3,5.67-26.18A9,9,0,0,1,118,169.4l1.34-.4,11.37-2.82c12.64,14.9,11.89,14.11,12.62,14.83,4.22,4.11,10.24,3.82,14.21-.83l11.9-14,11.32,2.8c.33.15,6,1.14,7.18,7.22,5.68,28.9,5.68,24.87,5.67,26.18,0,2.64-1.44,3.52-4.07,3.52h-9.67V187.74a1.93,1.93,0,1,0-3.85,0v18.18H140.35a1.93,1.93,0,1,0,0,3.85h49.14c4.76,0,7.88-2.62,7.93-7.34C197.43,200.23,197.3,204.28,191.67,175.47Zm-56.47-28.1a22.27,22.27,0,0,1-6.86-16c.12-4.2-.27-4.71.4-5.34a1.21,1.21,0,0,1,.91-.33,38.7,38.7,0,0,0,33.55-15.42,9.89,9.89,0,0,0,7.52,5.18,1.15,1.15,0,0,1,1,1.14v15.1C171.73,150.85,148.77,160.32,135.2,147.37ZM178.89,154a1.82,1.82,0,0,1-1.82,1.82H161.89v-1.49a25.51,25.51,0,0,0,13.69-22.65v-.35a10,10,0,0,0,3.31-1.24Zm0-29.48a4.86,4.86,0,0,1-3.31,2.85v-7.9a4.86,4.86,0,0,1,3.31,2.85ZM123,155.81a1.82,1.82,0,0,1-1.82-1.82v-34.3a25.6,25.6,0,0,1,25.28-25.61h.13a32.74,32.74,0,0,1,14.57,3.59c2.47,1.36,4,.27,6.44.27,6,0,10.72,6.13,11.3,11.63,0,.09,0,.38,0,1.46a.55.55,0,0,0,0,.18v5.53a10.07,10.07,0,0,0-3.43-1.26,5,5,0,0,0-4.24-3.87,6.32,6.32,0,0,1-5-3.82,3.3,3.3,0,0,0-5.63-.52c-3.31,4.51-12.52,14.62-28.42,14.62-1.21,0-2-.06-2.32-.07a5.1,5.1,0,0,0-5.39,5.09v4.43a26,26,0,0,0,13.62,22.87v1.6Zm31.55,21.87c-2.68,3.15-6.44,3.14-9.12,0l-4-4.75h17.2Zm7.34-8.62H138.14l-3.31-3.91,5.67-1.4a2,2,0,0,0,1.47-1.89v-6A25.53,25.53,0,0,0,158,156c0,6.16-.09,6,.1,6.56a2,2,0,0,0,1.36,1.24l5.71,1.41Z"/></svg>