<svg xmlns="http://www.w3.org/2000/svg" width="276.4" height="273.9" viewBox="0 0 276.4 273.9">
  <g id="glow-3-new" transform="translate(-15.6 -7)">
    <path id="Path_33" data-name="Path 33" d="M157.1,133.7c24.6,5.9,42.1,15.3,52.3,28.2s15.4,27.2,15.4,42.9c0,14.7-5,28.7-15.1,42s-24.7,22.3-43.9,27a240.418,240.418,0,0,1-57.3,7.1q-48,0-70.5-17.7c-15-11.8-22.4-25-22.4-39.7,0-11.3,3.7-20.8,11.2-28.4s16.7-11.4,27.8-11.4c10.3,0,18.9,3.5,25.8,10.4s10.4,15.6,10.4,26.2c0,10.1-3.1,18.3-9.2,24.8-6.2,6.5-14,9.7-23.6,9.7-7.3,0-14.5-2.8-21.7-8.3l-.8,1Q54.4,270,94.3,270c8.3,0,14.7-1.4,19.2-4.1s7.6-5.9,9.1-9.7c1.6-3.8,2.4-10,2.3-18.7V159.3c0-8.3-1.4-13.9-4.2-16.7s-8.6-4.2-17.2-4.2H83.8V128h23.9c6.5,0,11.1-1.4,13.6-4.3s3.8-7.9,3.7-15V55.1c0-11.2-2.1-18.9-6.2-23.1s-11.8-6.3-23-6.3a94.462,94.462,0,0,0-34.5,6.2v.8h2.1Q78.7,32.7,88,42t9.3,24.6c0,10.1-3.5,18.4-10.4,24.9s-15.7,9.8-26.4,9.8c-10.2,0-18.6-3.2-25.2-9.7s-9.9-14.8-9.9-25q0-24.45,23.8-37.7c15.9-8.8,38.4-13.2,67.7-13.2,31.3,0,55.5,5.6,72.8,16.7S215.5,59,215.5,79c0,13.7-4,25.3-12,34.7S180,129.5,157,132.9Z" fill="#4caf50"/>
    <circle id="Ellipse_31" data-name="Ellipse 31" cx="3" cy="3" r="3" transform="translate(286 7)" fill="#c8dedc"/>
    <circle id="Ellipse_32" data-name="Ellipse 32" cx="3" cy="3" r="3" transform="translate(266 7)" fill="#c8dedc"/>
    <circle id="Ellipse_33" data-name="Ellipse 33" cx="3" cy="3" r="3" transform="translate(246 7)" fill="#c8dedc"/>
    <circle id="Ellipse_34" data-name="Ellipse 34" cx="3" cy="3" r="3" transform="translate(286 23)" fill="#c8dedc"/>
    <circle id="Ellipse_35" data-name="Ellipse 35" cx="3" cy="3" r="3" transform="translate(266 23)" fill="#c8dedc"/>
    <circle id="Ellipse_36" data-name="Ellipse 36" cx="3" cy="3" r="3" transform="translate(246 23)" fill="#c8dedc"/>
    <circle id="Ellipse_37" data-name="Ellipse 37" cx="3" cy="3" r="3" transform="translate(286 39)" fill="#c8dedc"/>
    <circle id="Ellipse_38" data-name="Ellipse 38" cx="3" cy="3" r="3" transform="translate(266 39)" fill="#c8dedc"/>
    <circle id="Ellipse_39" data-name="Ellipse 39" cx="3" cy="3" r="3" transform="translate(246 39)" fill="#c8dedc"/>
    <circle id="Ellipse_40" data-name="Ellipse 40" cx="3" cy="3" r="3" transform="translate(286 55)" fill="#c8dedc"/>
    <circle id="Ellipse_41" data-name="Ellipse 41" cx="3" cy="3" r="3" transform="translate(266 55)" fill="#c8dedc"/>
    <circle id="Ellipse_42" data-name="Ellipse 42" cx="3" cy="3" r="3" transform="translate(246 55)" fill="#c8dedc"/>
    <circle id="Ellipse_43" data-name="Ellipse 43" cx="3" cy="3" r="3" transform="translate(286 71)" fill="#c8dedc"/>
    <circle id="Ellipse_44" data-name="Ellipse 44" cx="3" cy="3" r="3" transform="translate(266 71)" fill="#c8dedc"/>
    <circle id="Ellipse_45" data-name="Ellipse 45" cx="3" cy="3" r="3" transform="translate(246 71)" fill="#c8dedc"/>
    <path id="Path_34" data-name="Path 34" d="M189.6,129.7a1.768,1.768,0,1,0,0,2.5,1.845,1.845,0,0,0,.5-1.2A1.9,1.9,0,0,0,189.6,129.7Z" fill="#fff" stroke="#fff" stroke-miterlimit="10" stroke-width="1"/>
  </g>
</svg>
