<svg xmlns="http://www.w3.org/2000/svg" width="281.8" height="275" viewBox="0 0 281.8 275">
  <g id="glow-2-new" transform="translate(-10.2 -7)">
    <path id="Path_9" data-name="Path 9" d="M238,187q-9.6,23.7-27.1,50.6-17.4,26.85-35.3,34.1-17.85,7.2-31.2,7.2c-4.4,0-13-1.1-25.8-3.2q-47.1-7.65-63-7.7c-14.7,0-27.3,4.7-37.7,14l-7.7-4.7A101.048,101.048,0,0,1,31,235.5c10.1-12.1,19.7-21.3,28.6-27.6q30.6-21.9,40-30A104.455,104.455,0,0,0,117,158.3a82.867,82.867,0,0,0,12-27.2c2.7-10.5,4-23.8,4-39.9,0-16.5-1.6-28.7-4.8-36.7a39.842,39.842,0,0,0-16.7-19.3,49.232,49.232,0,0,0-26.4-7.4c-7.3,0-15.2,1.9-23.7,5.6A70.079,70.079,0,0,0,40.5,46.9l.8.8A45.839,45.839,0,0,1,56,45.2q16.35,0,26.4,9.9c6.7,6.6,10,15.3,10,26.1,0,11.3-3.7,20.8-11,28.4S64.9,121,53.8,121.1c-10.9,0-20.5-4-28.6-11.9S12.9,92,12.9,81.3q0-27,27-46.3,27-19.35,70.2-19.3,54.9,0,86.7,23.2c21.2,15.5,31.9,36.3,31.9,62.4,0,18-5.2,32.6-15.6,43.9s-23.8,20.4-40.3,27.2a275.621,275.621,0,0,1-48.7,15.4c-11.2,2.5-19.6,4.6-25.1,6.4a49.337,49.337,0,0,0-16.1,8.7l.8.8c6.7-3.6,14.6-5.5,23.9-5.5,6.1,0,18.1.8,35.8,2.4,18.1,1.5,30.4,2.3,36.8,2.3,14.3,0,24.8-1,31.4-2.9s12.6-7.9,18-18Z" fill="#4caf50"/>
    <circle id="Ellipse_16" data-name="Ellipse 16" cx="3" cy="3" r="3" transform="translate(286 7)" fill="#c8dedc"/>
    <circle id="Ellipse_17" data-name="Ellipse 17" cx="3" cy="3" r="3" transform="translate(266 7)" fill="#c8dedc"/>
    <circle id="Ellipse_18" data-name="Ellipse 18" cx="3" cy="3" r="3" transform="translate(246 7)" fill="#c8dedc"/>
    <circle id="Ellipse_19" data-name="Ellipse 19" cx="3" cy="3" r="3" transform="translate(286 23)" fill="#c8dedc"/>
    <circle id="Ellipse_20" data-name="Ellipse 20" cx="3" cy="3" r="3" transform="translate(266 23)" fill="#c8dedc"/>
    <circle id="Ellipse_21" data-name="Ellipse 21" cx="3" cy="3" r="3" transform="translate(246 23)" fill="#c8dedc"/>
    <circle id="Ellipse_22" data-name="Ellipse 22" cx="3" cy="3" r="3" transform="translate(286 39)" fill="#c8dedc"/>
    <circle id="Ellipse_23" data-name="Ellipse 23" cx="3" cy="3" r="3" transform="translate(266 39)" fill="#c8dedc"/>
    <circle id="Ellipse_24" data-name="Ellipse 24" cx="3" cy="3" r="3" transform="translate(246 39)" fill="#c8dedc"/>
    <circle id="Ellipse_25" data-name="Ellipse 25" cx="3" cy="3" r="3" transform="translate(286 55)" fill="#c8dedc"/>
    <circle id="Ellipse_26" data-name="Ellipse 26" cx="3" cy="3" r="3" transform="translate(266 55)" fill="#c8dedc"/>
    <circle id="Ellipse_27" data-name="Ellipse 27" cx="3" cy="3" r="3" transform="translate(246 55)" fill="#c8dedc"/>
    <circle id="Ellipse_28" data-name="Ellipse 28" cx="3" cy="3" r="3" transform="translate(286 71)" fill="#c8dedc"/>
    <circle id="Ellipse_29" data-name="Ellipse 29" cx="3" cy="3" r="3" transform="translate(266 71)" fill="#c8dedc"/>
    <circle id="Ellipse_30" data-name="Ellipse 30" cx="3" cy="3" r="3" transform="translate(246 71)" fill="#c8dedc"/>
    <path id="Path_13" data-name="Path 13" d="M158.6,182.8a1.9,1.9,0,0,0-1.3-.5,1.8,1.8,0,0,0,0,3.6,1.653,1.653,0,0,0,1.7-1.8,1.7,1.7,0,0,0-.4-1.3Z" fill="#fff" stroke="#fff" stroke-miterlimit="10" stroke-width="1"/>
  </g>
</svg>
